<?xml version="1.0" encoding="UTF-8"?>
<svg version="1.1" xmlns="http://www.w3.org/2000/svg" width="50" height="50">
<path d="M0 0 C0 11.22 0 22.44 0 34 C-3.46569983 32.61372007 -5.81554677 31.62075958 -8.76953125 29.6171875 C-9.43017578 29.17246094 -10.09082031 28.72773437 -10.77148438 28.26953125 C-11.44501953 27.80933594 -12.11855469 27.34914063 -12.8125 26.875 C-13.50537109 26.40707031 -14.19824219 25.93914063 -14.91210938 25.45703125 C-16.61091105 24.30887563 -18.30584864 23.15500633 -20 22 C-20.33 25.63 -20.66 29.26 -21 33 C-23.64 33 -26.28 33 -29 33 C-29 22.44 -29 11.88 -29 1 C-26.36 1 -23.72 1 -21 1 C-20.67 4.63 -20.34 8.26 -20 12 C-18.72382813 11.13375 -17.44765625 10.2675 -16.1328125 9.375 C-14.4637044 8.24975858 -12.79442467 7.1247717 -11.125 6 C-10.28324219 5.42765625 -9.44148438 4.8553125 -8.57421875 4.265625 C-7.76855469 3.72421875 -6.96289062 3.1828125 -6.1328125 2.625 C-5.38918457 2.12226563 -4.64555664 1.61953125 -3.87939453 1.1015625 C-2 0 -2 0 0 0 Z " fill="#000000" transform="translate(39,8)"/>
</svg>
