<?xml version="1.0" encoding="UTF-8"?>
<svg version="1.1" xmlns="http://www.w3.org/2000/svg" width="50" height="50">
<path d="M0 0 C3.46569983 1.38627993 5.81554677 2.37924042 8.76953125 4.3828125 C9.43017578 4.82753906 10.09082031 5.27226562 10.77148438 5.73046875 C11.44501953 6.19066406 12.11855469 6.65085937 12.8125 7.125 C13.50537109 7.59292969 14.19824219 8.06085937 14.91210938 8.54296875 C16.61091105 9.69112437 18.30584864 10.84499367 20 12 C20.33 8.37 20.66 4.74 21 1 C23.64 1 26.28 1 29 1 C29 11.56 29 22.12 29 33 C26.36 33 23.72 33 21 33 C20.67 29.37 20.34 25.74 20 22 C18.72382813 22.86625 17.44765625 23.7325 16.1328125 24.625 C14.4637044 25.75024142 12.79442467 26.8752283 11.125 28 C10.28324219 28.57234375 9.44148438 29.1446875 8.57421875 29.734375 C7.76855469 30.27578125 6.96289062 30.8171875 6.1328125 31.375 C5.01737061 32.12910156 5.01737061 32.12910156 3.87939453 32.8984375 C2 34 2 34 0 34 C0 22.78 0 11.56 0 0 Z " fill="#000000" transform="translate(11,8)"/>
</svg>
