<?xml version="1.0" encoding="UTF-8"?>
<svg version="1.1" xmlns="http://www.w3.org/2000/svg" width="50" height="50">
<path d="M0 0 C3.3 0 6.6 0 10 0 C10 11.22 10 22.44 10 34 C6.7 34 3.4 34 0 34 C0 22.78 0 11.56 0 0 Z M2 2 C2 11.9 2 21.8 2 32 C3.98 32 5.96 32 8 32 C8 22.1 8 12.2 8 2 C6.02 2 4.04 2 2 2 Z " fill="#FFFFFF" transform="translate(28,8)"/>
<path d="M0 0 C3.3 0 6.6 0 10 0 C10 11.22 10 22.44 10 34 C6.7 34 3.4 34 0 34 C0 22.78 0 11.56 0 0 Z M2 2 C2 11.9 2 21.8 2 32 C3.98 32 5.96 32 8 32 C8 22.1 8 12.2 8 2 C6.02 2 4.04 2 2 2 Z " fill="#FFFFFF" transform="translate(12,8)"/>
</svg>
