<?xml version="1.0" encoding="UTF-8"?>
<svg version="1.1" xmlns="http://www.w3.org/2000/svg" width="50" height="50">
<path d="M0 0 C3.99832828 1.59933131 7.37194763 3.26223728 11.0703125 5.40625 C11.63321991 5.73161743 12.19612732 6.05698486 12.77609253 6.39221191 C13.95856244 7.07648988 15.1401191 7.76234819 16.32080078 8.44970703 C18.12468136 9.49981451 19.93120679 10.54524382 21.73828125 11.58984375 C30.52303166 16.6820211 30.52303166 16.6820211 34 19 C34 19.66 34 20.32 34 21 C31.96955624 22.38037163 29.95693807 23.62353833 27.83203125 24.84375 C27.20020432 25.21350952 26.56837738 25.58326904 25.91740417 25.9642334 C24.57515598 26.7477377 23.23078989 27.52762302 21.88452148 28.30419922 C19.83411111 29.48752784 17.79064025 30.68214558 15.74804688 31.87890625 C14.44310541 32.63870322 13.13777864 33.39783888 11.83203125 34.15625 C11.22349808 34.51150757 10.6149649 34.86676514 9.98799133 35.23278809 C6.68771451 37.13111531 3.5644068 38.57423728 0 40 C0 26.8 0 13.6 0 0 Z M2 5 C2 14.9 2 24.8 2 35 C5.65491489 33.53803405 8.55691099 32.18484108 11.86328125 30.1796875 C13.19262695 29.37724609 13.19262695 29.37724609 14.54882812 28.55859375 C15.46083984 28.00300781 16.37285156 27.44742188 17.3125 26.875 C18.70952148 26.03001953 18.70952148 26.03001953 20.13476562 25.16796875 C22.42521142 23.7819554 24.71352076 22.39254372 27 21 C25.73964123 17.21892369 24.54514856 16.84442367 21.16015625 14.86328125 C19.6896582 13.99799805 19.6896582 13.99799805 18.18945312 13.11523438 C17.15755859 12.52033203 16.12566406 11.92542969 15.0625 11.3125 C14.03447266 10.70599609 13.00644531 10.09949219 11.94726562 9.47460938 C7.26061653 6.32349034 7.26061653 6.32349034 2 5 Z " fill="#FFFFFF" transform="translate(10,5)"/>
</svg>
